<?xml version="1.0" encoding="utf-8"?>
<svg xmlns="http://www.w3.org/2000/svg" xmlns:xlink="http://www.w3.org/1999/xlink" width="600" height="400" viewBox="0 0 2400 1600">
<defs>
  <clipPath id="clip300">
    <rect x="0" y="0" width="2400" height="1600"/>
  </clipPath>
</defs>
<path clip-path="url(#clip300)" d="M0 1600 L2400 1600 L2400 0 L0 0  Z" fill="#ffffff" fill-rule="evenodd" fill-opacity="1"/>
<defs>
  <clipPath id="clip301">
    <rect x="156" y="47" width="2198" height="1440"/>
  </clipPath>
</defs>
<path clip-path="url(#clip300)" d="M156.02 1486.45 L2352.76 1486.45 L2352.76 47.2441 L156.02 47.2441  Z" fill="#ffffff" fill-rule="evenodd" fill-opacity="1"/>
<polyline clip-path="url(#clip301)" style="stroke:#000000; stroke-linecap:round; stroke-linejoin:round; stroke-width:2; stroke-opacity:0.1; fill:none" points="218.191,1486.45 218.191,47.2441 "/>
<polyline clip-path="url(#clip301)" style="stroke:#000000; stroke-linecap:round; stroke-linejoin:round; stroke-width:2; stroke-opacity:0.1; fill:none" points="736.29,1486.45 736.29,47.2441 "/>
<polyline clip-path="url(#clip301)" style="stroke:#000000; stroke-linecap:round; stroke-linejoin:round; stroke-width:2; stroke-opacity:0.1; fill:none" points="1254.39,1486.45 1254.39,47.2441 "/>
<polyline clip-path="url(#clip301)" style="stroke:#000000; stroke-linecap:round; stroke-linejoin:round; stroke-width:2; stroke-opacity:0.1; fill:none" points="1772.49,1486.45 1772.49,47.2441 "/>
<polyline clip-path="url(#clip301)" style="stroke:#000000; stroke-linecap:round; stroke-linejoin:round; stroke-width:2; stroke-opacity:0.1; fill:none" points="2290.58,1486.45 2290.58,47.2441 "/>
<polyline clip-path="url(#clip301)" style="stroke:#000000; stroke-linecap:round; stroke-linejoin:round; stroke-width:2; stroke-opacity:0.1; fill:none" points="156.02,1303.76 2352.76,1303.76 "/>
<polyline clip-path="url(#clip301)" style="stroke:#000000; stroke-linecap:round; stroke-linejoin:round; stroke-width:2; stroke-opacity:0.1; fill:none" points="156.02,1118.5 2352.76,1118.5 "/>
<polyline clip-path="url(#clip301)" style="stroke:#000000; stroke-linecap:round; stroke-linejoin:round; stroke-width:2; stroke-opacity:0.1; fill:none" points="156.02,933.237 2352.76,933.237 "/>
<polyline clip-path="url(#clip301)" style="stroke:#000000; stroke-linecap:round; stroke-linejoin:round; stroke-width:2; stroke-opacity:0.1; fill:none" points="156.02,747.976 2352.76,747.976 "/>
<polyline clip-path="url(#clip301)" style="stroke:#000000; stroke-linecap:round; stroke-linejoin:round; stroke-width:2; stroke-opacity:0.1; fill:none" points="156.02,562.715 2352.76,562.715 "/>
<polyline clip-path="url(#clip301)" style="stroke:#000000; stroke-linecap:round; stroke-linejoin:round; stroke-width:2; stroke-opacity:0.1; fill:none" points="156.02,377.454 2352.76,377.454 "/>
<polyline clip-path="url(#clip301)" style="stroke:#000000; stroke-linecap:round; stroke-linejoin:round; stroke-width:2; stroke-opacity:0.1; fill:none" points="156.02,192.193 2352.76,192.193 "/>
<polyline clip-path="url(#clip300)" style="stroke:#000000; stroke-linecap:round; stroke-linejoin:round; stroke-width:4; stroke-opacity:1; fill:none" points="156.02,1486.45 2352.76,1486.45 "/>
<polyline clip-path="url(#clip300)" style="stroke:#000000; stroke-linecap:round; stroke-linejoin:round; stroke-width:4; stroke-opacity:1; fill:none" points="218.191,1486.45 218.191,1467.55 "/>
<polyline clip-path="url(#clip300)" style="stroke:#000000; stroke-linecap:round; stroke-linejoin:round; stroke-width:4; stroke-opacity:1; fill:none" points="736.29,1486.45 736.29,1467.55 "/>
<polyline clip-path="url(#clip300)" style="stroke:#000000; stroke-linecap:round; stroke-linejoin:round; stroke-width:4; stroke-opacity:1; fill:none" points="1254.39,1486.45 1254.39,1467.55 "/>
<polyline clip-path="url(#clip300)" style="stroke:#000000; stroke-linecap:round; stroke-linejoin:round; stroke-width:4; stroke-opacity:1; fill:none" points="1772.49,1486.45 1772.49,1467.55 "/>
<polyline clip-path="url(#clip300)" style="stroke:#000000; stroke-linecap:round; stroke-linejoin:round; stroke-width:4; stroke-opacity:1; fill:none" points="2290.58,1486.45 2290.58,1467.55 "/>
<path clip-path="url(#clip300)" d="M180.495 1517.37 Q176.884 1517.37 175.055 1520.93 Q173.249 1524.47 173.249 1531.6 Q173.249 1538.71 175.055 1542.27 Q176.884 1545.82 180.495 1545.82 Q184.129 1545.82 185.935 1542.27 Q187.763 1538.71 187.763 1531.6 Q187.763 1524.47 185.935 1520.93 Q184.129 1517.37 180.495 1517.37 M180.495 1513.66 Q186.305 1513.66 189.36 1518.27 Q192.439 1522.85 192.439 1531.6 Q192.439 1540.33 189.36 1544.94 Q186.305 1549.52 180.495 1549.52 Q174.685 1549.52 171.606 1544.94 Q168.55 1540.33 168.55 1531.6 Q168.55 1522.85 171.606 1518.27 Q174.685 1513.66 180.495 1513.66 Z" fill="#000000" fill-rule="nonzero" fill-opacity="1" /><path clip-path="url(#clip300)" d="M200.657 1542.97 L205.541 1542.97 L205.541 1548.85 L200.657 1548.85 L200.657 1542.97 Z" fill="#000000" fill-rule="nonzero" fill-opacity="1" /><path clip-path="url(#clip300)" d="M225.726 1517.37 Q222.115 1517.37 220.286 1520.93 Q218.481 1524.47 218.481 1531.6 Q218.481 1538.71 220.286 1542.27 Q222.115 1545.82 225.726 1545.82 Q229.36 1545.82 231.166 1542.27 Q232.994 1538.71 232.994 1531.6 Q232.994 1524.47 231.166 1520.93 Q229.36 1517.37 225.726 1517.37 M225.726 1513.66 Q231.536 1513.66 234.592 1518.27 Q237.67 1522.85 237.67 1531.6 Q237.67 1540.33 234.592 1544.94 Q231.536 1549.52 225.726 1549.52 Q219.916 1549.52 216.837 1544.94 Q213.782 1540.33 213.782 1531.6 Q213.782 1522.85 216.837 1518.27 Q219.916 1513.66 225.726 1513.66 Z" fill="#000000" fill-rule="nonzero" fill-opacity="1" /><path clip-path="url(#clip300)" d="M255.888 1517.37 Q252.277 1517.37 250.448 1520.93 Q248.643 1524.47 248.643 1531.6 Q248.643 1538.71 250.448 1542.27 Q252.277 1545.82 255.888 1545.82 Q259.522 1545.82 261.328 1542.27 Q263.156 1538.71 263.156 1531.6 Q263.156 1524.47 261.328 1520.93 Q259.522 1517.37 255.888 1517.37 M255.888 1513.66 Q261.698 1513.66 264.754 1518.27 Q267.832 1522.85 267.832 1531.6 Q267.832 1540.33 264.754 1544.94 Q261.698 1549.52 255.888 1549.52 Q250.078 1549.52 246.999 1544.94 Q243.943 1540.33 243.943 1531.6 Q243.943 1522.85 246.999 1518.27 Q250.078 1513.66 255.888 1513.66 Z" fill="#000000" fill-rule="nonzero" fill-opacity="1" /><path clip-path="url(#clip300)" d="M699.091 1517.37 Q695.48 1517.37 693.651 1520.93 Q691.845 1524.47 691.845 1531.6 Q691.845 1538.71 693.651 1542.27 Q695.48 1545.82 699.091 1545.82 Q702.725 1545.82 704.53 1542.27 Q706.359 1538.71 706.359 1531.6 Q706.359 1524.47 704.53 1520.93 Q702.725 1517.37 699.091 1517.37 M699.091 1513.66 Q704.901 1513.66 707.956 1518.27 Q711.035 1522.85 711.035 1531.6 Q711.035 1540.33 707.956 1544.94 Q704.901 1549.52 699.091 1549.52 Q693.28 1549.52 690.202 1544.94 Q687.146 1540.33 687.146 1531.6 Q687.146 1522.85 690.202 1518.27 Q693.28 1513.66 699.091 1513.66 Z" fill="#000000" fill-rule="nonzero" fill-opacity="1" /><path clip-path="url(#clip300)" d="M719.253 1542.97 L724.137 1542.97 L724.137 1548.85 L719.253 1548.85 L719.253 1542.97 Z" fill="#000000" fill-rule="nonzero" fill-opacity="1" /><path clip-path="url(#clip300)" d="M738.35 1544.91 L754.669 1544.91 L754.669 1548.85 L732.725 1548.85 L732.725 1544.91 Q735.387 1542.16 739.97 1537.53 Q744.577 1532.88 745.757 1531.53 Q748.002 1529.01 748.882 1527.27 Q749.785 1525.51 749.785 1523.82 Q749.785 1521.07 747.84 1519.33 Q745.919 1517.6 742.817 1517.6 Q740.618 1517.6 738.165 1518.36 Q735.734 1519.13 732.956 1520.68 L732.956 1515.95 Q735.78 1514.82 738.234 1514.24 Q740.688 1513.66 742.725 1513.66 Q748.095 1513.66 751.289 1516.35 Q754.484 1519.03 754.484 1523.52 Q754.484 1525.65 753.674 1527.57 Q752.887 1529.47 750.78 1532.07 Q750.201 1532.74 747.1 1535.95 Q743.998 1539.15 738.35 1544.91 Z" fill="#000000" fill-rule="nonzero" fill-opacity="1" /><path clip-path="url(#clip300)" d="M764.53 1514.29 L782.886 1514.29 L782.886 1518.22 L768.812 1518.22 L768.812 1526.7 Q769.831 1526.35 770.85 1526.19 Q771.868 1526 772.887 1526 Q778.674 1526 782.053 1529.17 Q785.433 1532.34 785.433 1537.76 Q785.433 1543.34 781.961 1546.44 Q778.488 1549.52 772.169 1549.52 Q769.993 1549.52 767.725 1549.15 Q765.479 1548.78 763.072 1548.04 L763.072 1543.34 Q765.155 1544.47 767.377 1545.03 Q769.6 1545.58 772.076 1545.58 Q776.081 1545.58 778.419 1543.48 Q780.757 1541.37 780.757 1537.76 Q780.757 1534.15 778.419 1532.04 Q776.081 1529.94 772.076 1529.94 Q770.201 1529.94 768.326 1530.35 Q766.475 1530.77 764.53 1531.65 L764.53 1514.29 Z" fill="#000000" fill-rule="nonzero" fill-opacity="1" /><path clip-path="url(#clip300)" d="M1216.69 1517.37 Q1213.08 1517.37 1211.25 1520.93 Q1209.45 1524.47 1209.45 1531.6 Q1209.45 1538.71 1211.25 1542.27 Q1213.08 1545.82 1216.69 1545.82 Q1220.33 1545.82 1222.13 1542.27 Q1223.96 1538.71 1223.96 1531.6 Q1223.96 1524.47 1222.13 1520.93 Q1220.33 1517.37 1216.69 1517.37 M1216.69 1513.66 Q1222.5 1513.66 1225.56 1518.27 Q1228.64 1522.85 1228.64 1531.6 Q1228.64 1540.33 1225.56 1544.94 Q1222.5 1549.52 1216.69 1549.52 Q1210.88 1549.52 1207.8 1544.94 Q1204.75 1540.33 1204.75 1531.6 Q1204.75 1522.85 1207.8 1518.27 Q1210.88 1513.66 1216.69 1513.66 Z" fill="#000000" fill-rule="nonzero" fill-opacity="1" /><path clip-path="url(#clip300)" d="M1236.85 1542.97 L1241.74 1542.97 L1241.74 1548.85 L1236.85 1548.85 L1236.85 1542.97 Z" fill="#000000" fill-rule="nonzero" fill-opacity="1" /><path clip-path="url(#clip300)" d="M1251.97 1514.29 L1270.33 1514.29 L1270.33 1518.22 L1256.25 1518.22 L1256.25 1526.7 Q1257.27 1526.35 1258.29 1526.19 Q1259.31 1526 1260.33 1526 Q1266.11 1526 1269.49 1529.17 Q1272.87 1532.34 1272.87 1537.76 Q1272.87 1543.34 1269.4 1546.44 Q1265.93 1549.52 1259.61 1549.52 Q1257.43 1549.52 1255.16 1549.15 Q1252.92 1548.78 1250.51 1548.04 L1250.51 1543.34 Q1252.59 1544.47 1254.82 1545.03 Q1257.04 1545.58 1259.52 1545.58 Q1263.52 1545.58 1265.86 1543.48 Q1268.2 1541.37 1268.2 1537.76 Q1268.2 1534.15 1265.86 1532.04 Q1263.52 1529.94 1259.52 1529.94 Q1257.64 1529.94 1255.77 1530.35 Q1253.91 1530.77 1251.97 1531.65 L1251.97 1514.29 Z" fill="#000000" fill-rule="nonzero" fill-opacity="1" /><path clip-path="url(#clip300)" d="M1292.08 1517.37 Q1288.47 1517.37 1286.64 1520.93 Q1284.84 1524.47 1284.84 1531.6 Q1284.84 1538.71 1286.64 1542.27 Q1288.47 1545.82 1292.08 1545.82 Q1295.72 1545.82 1297.52 1542.27 Q1299.35 1538.71 1299.35 1531.6 Q1299.35 1524.47 1297.52 1520.93 Q1295.72 1517.37 1292.08 1517.37 M1292.08 1513.66 Q1297.89 1513.66 1300.95 1518.27 Q1304.03 1522.85 1304.03 1531.6 Q1304.03 1540.33 1300.95 1544.94 Q1297.89 1549.52 1292.08 1549.52 Q1286.27 1549.52 1283.2 1544.94 Q1280.14 1540.33 1280.14 1531.6 Q1280.14 1522.85 1283.2 1518.27 Q1286.27 1513.66 1292.08 1513.66 Z" fill="#000000" fill-rule="nonzero" fill-opacity="1" /><path clip-path="url(#clip300)" d="M1735.29 1517.37 Q1731.68 1517.37 1729.85 1520.93 Q1728.04 1524.47 1728.04 1531.6 Q1728.04 1538.71 1729.85 1542.27 Q1731.68 1545.82 1735.29 1545.82 Q1738.92 1545.82 1740.73 1542.27 Q1742.56 1538.71 1742.56 1531.6 Q1742.56 1524.47 1740.73 1520.93 Q1738.92 1517.37 1735.29 1517.37 M1735.29 1513.66 Q1741.1 1513.66 1744.15 1518.27 Q1747.23 1522.85 1747.23 1531.6 Q1747.23 1540.33 1744.15 1544.94 Q1741.1 1549.52 1735.29 1549.52 Q1729.48 1549.52 1726.4 1544.94 Q1723.34 1540.33 1723.34 1531.6 Q1723.34 1522.85 1726.4 1518.27 Q1729.48 1513.66 1735.29 1513.66 Z" fill="#000000" fill-rule="nonzero" fill-opacity="1" /><path clip-path="url(#clip300)" d="M1755.45 1542.97 L1760.33 1542.97 L1760.33 1548.85 L1755.45 1548.85 L1755.45 1542.97 Z" fill="#000000" fill-rule="nonzero" fill-opacity="1" /><path clip-path="url(#clip300)" d="M1769.34 1514.29 L1791.56 1514.29 L1791.56 1516.28 L1779.01 1548.85 L1774.13 1548.85 L1785.93 1518.22 L1769.34 1518.22 L1769.34 1514.29 Z" fill="#000000" fill-rule="nonzero" fill-opacity="1" /><path clip-path="url(#clip300)" d="M1800.73 1514.29 L1819.08 1514.29 L1819.08 1518.22 L1805.01 1518.22 L1805.01 1526.7 Q1806.03 1526.35 1807.05 1526.19 Q1808.06 1526 1809.08 1526 Q1814.87 1526 1818.25 1529.17 Q1821.63 1532.34 1821.63 1537.76 Q1821.63 1543.34 1818.16 1546.44 Q1814.68 1549.52 1808.37 1549.52 Q1806.19 1549.52 1803.92 1549.15 Q1801.68 1548.78 1799.27 1548.04 L1799.27 1543.34 Q1801.35 1544.47 1803.57 1545.03 Q1805.8 1545.58 1808.27 1545.58 Q1812.28 1545.58 1814.62 1543.48 Q1816.95 1541.37 1816.95 1537.76 Q1816.95 1534.15 1814.62 1532.04 Q1812.28 1529.94 1808.27 1529.94 Q1806.4 1529.94 1804.52 1530.35 Q1802.67 1530.77 1800.73 1531.65 L1800.73 1514.29 Z" fill="#000000" fill-rule="nonzero" fill-opacity="1" /><path clip-path="url(#clip300)" d="M2242.66 1544.91 L2250.29 1544.91 L2250.29 1518.55 L2241.98 1520.21 L2241.98 1515.95 L2250.25 1514.29 L2254.92 1514.29 L2254.92 1544.91 L2262.56 1544.91 L2262.56 1548.85 L2242.66 1548.85 L2242.66 1544.91 Z" fill="#000000" fill-rule="nonzero" fill-opacity="1" /><path clip-path="url(#clip300)" d="M2272.01 1542.97 L2276.89 1542.97 L2276.89 1548.85 L2272.01 1548.85 L2272.01 1542.97 Z" fill="#000000" fill-rule="nonzero" fill-opacity="1" /><path clip-path="url(#clip300)" d="M2297.08 1517.37 Q2293.47 1517.37 2291.64 1520.93 Q2289.83 1524.47 2289.83 1531.6 Q2289.83 1538.71 2291.64 1542.27 Q2293.47 1545.82 2297.08 1545.82 Q2300.71 1545.82 2302.52 1542.27 Q2304.35 1538.71 2304.35 1531.6 Q2304.35 1524.47 2302.52 1520.93 Q2300.71 1517.37 2297.08 1517.37 M2297.08 1513.66 Q2302.89 1513.66 2305.94 1518.27 Q2309.02 1522.85 2309.02 1531.6 Q2309.02 1540.33 2305.94 1544.94 Q2302.89 1549.52 2297.08 1549.52 Q2291.27 1549.52 2288.19 1544.94 Q2285.13 1540.33 2285.13 1531.6 Q2285.13 1522.85 2288.19 1518.27 Q2291.27 1513.66 2297.08 1513.66 Z" fill="#000000" fill-rule="nonzero" fill-opacity="1" /><path clip-path="url(#clip300)" d="M2327.24 1517.37 Q2323.63 1517.37 2321.8 1520.93 Q2319.99 1524.47 2319.99 1531.6 Q2319.99 1538.71 2321.8 1542.27 Q2323.63 1545.82 2327.24 1545.82 Q2330.87 1545.82 2332.68 1542.27 Q2334.51 1538.71 2334.51 1531.6 Q2334.51 1524.47 2332.68 1520.93 Q2330.87 1517.37 2327.24 1517.37 M2327.24 1513.66 Q2333.05 1513.66 2336.1 1518.27 Q2339.18 1522.85 2339.18 1531.6 Q2339.18 1540.33 2336.1 1544.94 Q2333.05 1549.52 2327.24 1549.52 Q2321.43 1549.52 2318.35 1544.94 Q2315.29 1540.33 2315.29 1531.6 Q2315.29 1522.85 2318.35 1518.27 Q2321.43 1513.66 2327.24 1513.66 Z" fill="#000000" fill-rule="nonzero" fill-opacity="1" /><polyline clip-path="url(#clip300)" style="stroke:#000000; stroke-linecap:round; stroke-linejoin:round; stroke-width:4; stroke-opacity:1; fill:none" points="156.02,1486.45 156.02,47.2441 "/>
<polyline clip-path="url(#clip300)" style="stroke:#000000; stroke-linecap:round; stroke-linejoin:round; stroke-width:4; stroke-opacity:1; fill:none" points="156.02,1303.76 174.917,1303.76 "/>
<polyline clip-path="url(#clip300)" style="stroke:#000000; stroke-linecap:round; stroke-linejoin:round; stroke-width:4; stroke-opacity:1; fill:none" points="156.02,1118.5 174.917,1118.5 "/>
<polyline clip-path="url(#clip300)" style="stroke:#000000; stroke-linecap:round; stroke-linejoin:round; stroke-width:4; stroke-opacity:1; fill:none" points="156.02,933.237 174.917,933.237 "/>
<polyline clip-path="url(#clip300)" style="stroke:#000000; stroke-linecap:round; stroke-linejoin:round; stroke-width:4; stroke-opacity:1; fill:none" points="156.02,747.976 174.917,747.976 "/>
<polyline clip-path="url(#clip300)" style="stroke:#000000; stroke-linecap:round; stroke-linejoin:round; stroke-width:4; stroke-opacity:1; fill:none" points="156.02,562.715 174.917,562.715 "/>
<polyline clip-path="url(#clip300)" style="stroke:#000000; stroke-linecap:round; stroke-linejoin:round; stroke-width:4; stroke-opacity:1; fill:none" points="156.02,377.454 174.917,377.454 "/>
<polyline clip-path="url(#clip300)" style="stroke:#000000; stroke-linecap:round; stroke-linejoin:round; stroke-width:4; stroke-opacity:1; fill:none" points="156.02,192.193 174.917,192.193 "/>
<path clip-path="url(#clip300)" d="M62.9365 1289.56 Q59.3254 1289.56 57.4967 1293.12 Q55.6912 1296.66 55.6912 1303.79 Q55.6912 1310.9 57.4967 1314.46 Q59.3254 1318.01 62.9365 1318.01 Q66.5707 1318.01 68.3763 1314.46 Q70.205 1310.9 70.205 1303.79 Q70.205 1296.66 68.3763 1293.12 Q66.5707 1289.56 62.9365 1289.56 M62.9365 1285.85 Q68.7467 1285.85 71.8022 1290.46 Q74.8809 1295.04 74.8809 1303.79 Q74.8809 1312.52 71.8022 1317.13 Q68.7467 1321.71 62.9365 1321.71 Q57.1264 1321.71 54.0477 1317.13 Q50.9921 1312.52 50.9921 1303.79 Q50.9921 1295.04 54.0477 1290.46 Q57.1264 1285.85 62.9365 1285.85 Z" fill="#000000" fill-rule="nonzero" fill-opacity="1" /><path clip-path="url(#clip300)" d="M83.0984 1315.16 L87.9827 1315.16 L87.9827 1321.04 L83.0984 1321.04 L83.0984 1315.16 Z" fill="#000000" fill-rule="nonzero" fill-opacity="1" /><path clip-path="url(#clip300)" d="M108.168 1304.63 Q104.834 1304.63 102.913 1306.41 Q101.015 1308.19 101.015 1311.32 Q101.015 1314.44 102.913 1316.22 Q104.834 1318.01 108.168 1318.01 Q111.501 1318.01 113.422 1316.22 Q115.344 1314.42 115.344 1311.32 Q115.344 1308.19 113.422 1306.41 Q111.524 1304.63 108.168 1304.63 M103.492 1302.64 Q100.483 1301.9 98.7928 1299.84 Q97.1261 1297.78 97.1261 1294.81 Q97.1261 1290.67 100.066 1288.26 Q103.029 1285.85 108.168 1285.85 Q113.33 1285.85 116.27 1288.26 Q119.209 1290.67 119.209 1294.81 Q119.209 1297.78 117.52 1299.84 Q115.853 1301.9 112.867 1302.64 Q116.246 1303.42 118.121 1305.71 Q120.02 1308.01 120.02 1311.32 Q120.02 1316.34 116.941 1319.03 Q113.885 1321.71 108.168 1321.71 Q102.45 1321.71 99.3715 1319.03 Q96.316 1316.34 96.316 1311.32 Q96.316 1308.01 98.2141 1305.71 Q100.112 1303.42 103.492 1302.64 M101.779 1295.25 Q101.779 1297.94 103.446 1299.44 Q105.135 1300.95 108.168 1300.95 Q111.177 1300.95 112.867 1299.44 Q114.58 1297.94 114.58 1295.25 Q114.58 1292.57 112.867 1291.06 Q111.177 1289.56 108.168 1289.56 Q105.135 1289.56 103.446 1291.06 Q101.779 1292.57 101.779 1295.25 Z" fill="#000000" fill-rule="nonzero" fill-opacity="1" /><path clip-path="url(#clip300)" d="M53.6541 1131.84 L61.293 1131.84 L61.293 1105.48 L52.9829 1107.14 L52.9829 1102.88 L61.2467 1101.22 L65.9226 1101.22 L65.9226 1131.84 L73.5614 1131.84 L73.5614 1135.78 L53.6541 1135.78 L53.6541 1131.84 Z" fill="#000000" fill-rule="nonzero" fill-opacity="1" /><path clip-path="url(#clip300)" d="M83.0058 1129.9 L87.8901 1129.9 L87.8901 1135.78 L83.0058 1135.78 L83.0058 1129.9 Z" fill="#000000" fill-rule="nonzero" fill-opacity="1" /><path clip-path="url(#clip300)" d="M108.075 1104.3 Q104.464 1104.3 102.635 1107.86 Q100.83 1111.4 100.83 1118.53 Q100.83 1125.64 102.635 1129.2 Q104.464 1132.75 108.075 1132.75 Q111.709 1132.75 113.515 1129.2 Q115.344 1125.64 115.344 1118.53 Q115.344 1111.4 113.515 1107.86 Q111.709 1104.3 108.075 1104.3 M108.075 1100.59 Q113.885 1100.59 116.941 1105.2 Q120.02 1109.78 120.02 1118.53 Q120.02 1127.26 116.941 1131.87 Q113.885 1136.45 108.075 1136.45 Q102.265 1136.45 99.1863 1131.87 Q96.1308 1127.26 96.1308 1118.53 Q96.1308 1109.78 99.1863 1105.2 Q102.265 1100.59 108.075 1100.59 Z" fill="#000000" fill-rule="nonzero" fill-opacity="1" /><path clip-path="url(#clip300)" d="M55.2514 946.582 L62.8902 946.582 L62.8902 920.216 L54.5801 921.883 L54.5801 917.624 L62.8439 915.957 L67.5198 915.957 L67.5198 946.582 L75.1587 946.582 L75.1587 950.517 L55.2514 950.517 L55.2514 946.582 Z" fill="#000000" fill-rule="nonzero" fill-opacity="1" /><path clip-path="url(#clip300)" d="M84.6031 944.637 L89.4873 944.637 L89.4873 950.517 L84.6031 950.517 L84.6031 944.637 Z" fill="#000000" fill-rule="nonzero" fill-opacity="1" /><path clip-path="url(#clip300)" d="M103.7 946.582 L120.02 946.582 L120.02 950.517 L98.0752 950.517 L98.0752 946.582 Q100.737 943.827 105.321 939.198 Q109.927 934.545 111.108 933.202 Q113.353 930.679 114.233 928.943 Q115.135 927.184 115.135 925.494 Q115.135 922.739 113.191 921.003 Q111.27 919.267 108.168 919.267 Q105.969 919.267 103.515 920.031 Q101.084 920.795 98.3067 922.346 L98.3067 917.624 Q101.131 916.489 103.584 915.911 Q106.038 915.332 108.075 915.332 Q113.445 915.332 116.64 918.017 Q119.834 920.702 119.834 925.193 Q119.834 927.323 119.024 929.244 Q118.237 931.142 116.131 933.735 Q115.552 934.406 112.45 937.624 Q109.348 940.818 103.7 946.582 Z" fill="#000000" fill-rule="nonzero" fill-opacity="1" /><path clip-path="url(#clip300)" d="M53.168 761.321 L60.8069 761.321 L60.8069 734.955 L52.4967 736.622 L52.4967 732.363 L60.7606 730.696 L65.4365 730.696 L65.4365 761.321 L73.0753 761.321 L73.0753 765.256 L53.168 765.256 L53.168 761.321 Z" fill="#000000" fill-rule="nonzero" fill-opacity="1" /><path clip-path="url(#clip300)" d="M82.5197 759.376 L87.404 759.376 L87.404 765.256 L82.5197 765.256 L82.5197 759.376 Z" fill="#000000" fill-rule="nonzero" fill-opacity="1" /><path clip-path="url(#clip300)" d="M110.436 734.77 L98.6308 753.219 L110.436 753.219 L110.436 734.77 M109.209 730.696 L115.089 730.696 L115.089 753.219 L120.02 753.219 L120.02 757.108 L115.089 757.108 L115.089 765.256 L110.436 765.256 L110.436 757.108 L94.8345 757.108 L94.8345 752.594 L109.209 730.696 Z" fill="#000000" fill-rule="nonzero" fill-opacity="1" /><path clip-path="url(#clip300)" d="M53.4921 576.06 L61.131 576.06 L61.131 549.694 L52.8208 551.361 L52.8208 547.102 L61.0847 545.435 L65.7606 545.435 L65.7606 576.06 L73.3994 576.06 L73.3994 579.995 L53.4921 579.995 L53.4921 576.06 Z" fill="#000000" fill-rule="nonzero" fill-opacity="1" /><path clip-path="url(#clip300)" d="M82.8438 574.116 L87.728 574.116 L87.728 579.995 L82.8438 579.995 L82.8438 574.116 Z" fill="#000000" fill-rule="nonzero" fill-opacity="1" /><path clip-path="url(#clip300)" d="M108.492 560.852 Q105.344 560.852 103.492 563.004 Q101.663 565.157 101.663 568.907 Q101.663 572.634 103.492 574.81 Q105.344 576.963 108.492 576.963 Q111.64 576.963 113.469 574.81 Q115.32 572.634 115.32 568.907 Q115.32 565.157 113.469 563.004 Q111.64 560.852 108.492 560.852 M117.774 546.199 L117.774 550.458 Q116.015 549.625 114.209 549.185 Q112.427 548.745 110.668 548.745 Q106.038 548.745 103.584 551.87 Q101.154 554.995 100.807 561.315 Q102.172 559.301 104.233 558.236 Q106.293 557.148 108.77 557.148 Q113.978 557.148 116.987 560.319 Q120.02 563.467 120.02 568.907 Q120.02 574.231 116.871 577.449 Q113.723 580.666 108.492 580.666 Q102.496 580.666 99.3252 576.083 Q96.1539 571.477 96.1539 562.75 Q96.1539 554.555 100.043 549.694 Q103.932 544.81 110.483 544.81 Q112.242 544.81 114.024 545.157 Q115.83 545.505 117.774 546.199 Z" fill="#000000" fill-rule="nonzero" fill-opacity="1" /><path clip-path="url(#clip300)" d="M53.7467 390.799 L61.3856 390.799 L61.3856 364.433 L53.0754 366.1 L53.0754 361.841 L61.3393 360.174 L66.0152 360.174 L66.0152 390.799 L73.654 390.799 L73.654 394.734 L53.7467 394.734 L53.7467 390.799 Z" fill="#000000" fill-rule="nonzero" fill-opacity="1" /><path clip-path="url(#clip300)" d="M83.0984 388.855 L87.9827 388.855 L87.9827 394.734 L83.0984 394.734 L83.0984 388.855 Z" fill="#000000" fill-rule="nonzero" fill-opacity="1" /><path clip-path="url(#clip300)" d="M108.168 378.322 Q104.834 378.322 102.913 380.105 Q101.015 381.887 101.015 385.012 Q101.015 388.137 102.913 389.919 Q104.834 391.702 108.168 391.702 Q111.501 391.702 113.422 389.919 Q115.344 388.114 115.344 385.012 Q115.344 381.887 113.422 380.105 Q111.524 378.322 108.168 378.322 M103.492 376.331 Q100.483 375.591 98.7928 373.531 Q97.1261 371.47 97.1261 368.507 Q97.1261 364.364 100.066 361.957 Q103.029 359.549 108.168 359.549 Q113.33 359.549 116.27 361.957 Q119.209 364.364 119.209 368.507 Q119.209 371.47 117.52 373.531 Q115.853 375.591 112.867 376.331 Q116.246 377.119 118.121 379.41 Q120.02 381.702 120.02 385.012 Q120.02 390.035 116.941 392.72 Q113.885 395.405 108.168 395.405 Q102.45 395.405 99.3715 392.72 Q96.316 390.035 96.316 385.012 Q96.316 381.702 98.2141 379.41 Q100.112 377.119 103.492 376.331 M101.779 368.947 Q101.779 371.632 103.446 373.137 Q105.135 374.642 108.168 374.642 Q111.177 374.642 112.867 373.137 Q114.58 371.632 114.58 368.947 Q114.58 366.262 112.867 364.757 Q111.177 363.253 108.168 363.253 Q105.135 363.253 103.446 364.757 Q101.779 366.262 101.779 368.947 Z" fill="#000000" fill-rule="nonzero" fill-opacity="1" /><path clip-path="url(#clip300)" d="M56.8717 205.538 L73.1911 205.538 L73.1911 209.473 L51.2468 209.473 L51.2468 205.538 Q53.9088 202.783 58.4921 198.154 Q63.0985 193.501 64.2791 192.158 Q66.5245 189.635 67.4041 187.899 Q68.3068 186.14 68.3068 184.45 Q68.3068 181.696 66.3624 179.959 Q64.4411 178.223 61.3393 178.223 Q59.1402 178.223 56.6865 178.987 Q54.256 179.751 51.4782 181.302 L51.4782 176.58 Q54.3023 175.446 56.756 174.867 Q59.2097 174.288 61.2467 174.288 Q66.617 174.288 69.8115 176.973 Q73.0059 179.659 73.0059 184.149 Q73.0059 186.279 72.1957 188.2 Q71.4087 190.098 69.3022 192.691 Q68.7235 193.362 65.6217 196.58 Q62.5198 199.774 56.8717 205.538 Z" fill="#000000" fill-rule="nonzero" fill-opacity="1" /><path clip-path="url(#clip300)" d="M83.0058 203.594 L87.8901 203.594 L87.8901 209.473 L83.0058 209.473 L83.0058 203.594 Z" fill="#000000" fill-rule="nonzero" fill-opacity="1" /><path clip-path="url(#clip300)" d="M108.075 177.992 Q104.464 177.992 102.635 181.557 Q100.83 185.098 100.83 192.228 Q100.83 199.334 102.635 202.899 Q104.464 206.441 108.075 206.441 Q111.709 206.441 113.515 202.899 Q115.344 199.334 115.344 192.228 Q115.344 185.098 113.515 181.557 Q111.709 177.992 108.075 177.992 M108.075 174.288 Q113.885 174.288 116.941 178.895 Q120.02 183.478 120.02 192.228 Q120.02 200.955 116.941 205.561 Q113.885 210.144 108.075 210.144 Q102.265 210.144 99.1863 205.561 Q96.1308 200.955 96.1308 192.228 Q96.1308 183.478 99.1863 178.895 Q102.265 174.288 108.075 174.288 Z" fill="#000000" fill-rule="nonzero" fill-opacity="1" /><circle clip-path="url(#clip301)" cx="218.191" cy="104.845" r="14.4" fill="#009af9" fill-rule="evenodd" fill-opacity="1" stroke="#000000" stroke-opacity="1" stroke-width="3.2"/>
<circle clip-path="url(#clip301)" cx="239.125" cy="198.407" r="14.4" fill="#009af9" fill-rule="evenodd" fill-opacity="1" stroke="#000000" stroke-opacity="1" stroke-width="3.2"/>
<circle clip-path="url(#clip301)" cx="260.058" cy="87.9763" r="14.4" fill="#009af9" fill-rule="evenodd" fill-opacity="1" stroke="#000000" stroke-opacity="1" stroke-width="3.2"/>
<circle clip-path="url(#clip301)" cx="280.991" cy="236.014" r="14.4" fill="#009af9" fill-rule="evenodd" fill-opacity="1" stroke="#000000" stroke-opacity="1" stroke-width="3.2"/>
<circle clip-path="url(#clip301)" cx="301.924" cy="377.245" r="14.4" fill="#009af9" fill-rule="evenodd" fill-opacity="1" stroke="#000000" stroke-opacity="1" stroke-width="3.2"/>
<circle clip-path="url(#clip301)" cx="322.858" cy="254.552" r="14.4" fill="#009af9" fill-rule="evenodd" fill-opacity="1" stroke="#000000" stroke-opacity="1" stroke-width="3.2"/>
<circle clip-path="url(#clip301)" cx="343.791" cy="322.873" r="14.4" fill="#009af9" fill-rule="evenodd" fill-opacity="1" stroke="#000000" stroke-opacity="1" stroke-width="3.2"/>
<circle clip-path="url(#clip301)" cx="364.724" cy="419.384" r="14.4" fill="#009af9" fill-rule="evenodd" fill-opacity="1" stroke="#000000" stroke-opacity="1" stroke-width="3.2"/>
<circle clip-path="url(#clip301)" cx="385.657" cy="293.186" r="14.4" fill="#009af9" fill-rule="evenodd" fill-opacity="1" stroke="#000000" stroke-opacity="1" stroke-width="3.2"/>
<circle clip-path="url(#clip301)" cx="406.591" cy="360.649" r="14.4" fill="#009af9" fill-rule="evenodd" fill-opacity="1" stroke="#000000" stroke-opacity="1" stroke-width="3.2"/>
<circle clip-path="url(#clip301)" cx="427.524" cy="445.441" r="14.4" fill="#009af9" fill-rule="evenodd" fill-opacity="1" stroke="#000000" stroke-opacity="1" stroke-width="3.2"/>
<circle clip-path="url(#clip301)" cx="448.457" cy="577.929" r="14.4" fill="#009af9" fill-rule="evenodd" fill-opacity="1" stroke="#000000" stroke-opacity="1" stroke-width="3.2"/>
<circle clip-path="url(#clip301)" cx="469.39" cy="374.677" r="14.4" fill="#009af9" fill-rule="evenodd" fill-opacity="1" stroke="#000000" stroke-opacity="1" stroke-width="3.2"/>
<circle clip-path="url(#clip301)" cx="490.324" cy="464.579" r="14.4" fill="#009af9" fill-rule="evenodd" fill-opacity="1" stroke="#000000" stroke-opacity="1" stroke-width="3.2"/>
<circle clip-path="url(#clip301)" cx="511.257" cy="523.977" r="14.4" fill="#009af9" fill-rule="evenodd" fill-opacity="1" stroke="#000000" stroke-opacity="1" stroke-width="3.2"/>
<circle clip-path="url(#clip301)" cx="532.19" cy="283.673" r="14.4" fill="#009af9" fill-rule="evenodd" fill-opacity="1" stroke="#000000" stroke-opacity="1" stroke-width="3.2"/>
<circle clip-path="url(#clip301)" cx="553.123" cy="566.693" r="14.4" fill="#009af9" fill-rule="evenodd" fill-opacity="1" stroke="#000000" stroke-opacity="1" stroke-width="3.2"/>
<circle clip-path="url(#clip301)" cx="574.057" cy="457.439" r="14.4" fill="#009af9" fill-rule="evenodd" fill-opacity="1" stroke="#000000" stroke-opacity="1" stroke-width="3.2"/>
<circle clip-path="url(#clip301)" cx="594.99" cy="384.682" r="14.4" fill="#009af9" fill-rule="evenodd" fill-opacity="1" stroke="#000000" stroke-opacity="1" stroke-width="3.2"/>
<circle clip-path="url(#clip301)" cx="615.923" cy="555.472" r="14.4" fill="#009af9" fill-rule="evenodd" fill-opacity="1" stroke="#000000" stroke-opacity="1" stroke-width="3.2"/>
<circle clip-path="url(#clip301)" cx="636.857" cy="533.402" r="14.4" fill="#009af9" fill-rule="evenodd" fill-opacity="1" stroke="#000000" stroke-opacity="1" stroke-width="3.2"/>
<circle clip-path="url(#clip301)" cx="657.79" cy="658.469" r="14.4" fill="#009af9" fill-rule="evenodd" fill-opacity="1" stroke="#000000" stroke-opacity="1" stroke-width="3.2"/>
<circle clip-path="url(#clip301)" cx="678.723" cy="614.932" r="14.4" fill="#009af9" fill-rule="evenodd" fill-opacity="1" stroke="#000000" stroke-opacity="1" stroke-width="3.2"/>
<circle clip-path="url(#clip301)" cx="699.656" cy="569.139" r="14.4" fill="#009af9" fill-rule="evenodd" fill-opacity="1" stroke="#000000" stroke-opacity="1" stroke-width="3.2"/>
<circle clip-path="url(#clip301)" cx="720.59" cy="683.255" r="14.4" fill="#009af9" fill-rule="evenodd" fill-opacity="1" stroke="#000000" stroke-opacity="1" stroke-width="3.2"/>
<circle clip-path="url(#clip301)" cx="741.523" cy="700.421" r="14.4" fill="#009af9" fill-rule="evenodd" fill-opacity="1" stroke="#000000" stroke-opacity="1" stroke-width="3.2"/>
<circle clip-path="url(#clip301)" cx="762.456" cy="631.837" r="14.4" fill="#009af9" fill-rule="evenodd" fill-opacity="1" stroke="#000000" stroke-opacity="1" stroke-width="3.2"/>
<circle clip-path="url(#clip301)" cx="783.389" cy="773.04" r="14.4" fill="#009af9" fill-rule="evenodd" fill-opacity="1" stroke="#000000" stroke-opacity="1" stroke-width="3.2"/>
<circle clip-path="url(#clip301)" cx="804.323" cy="596.907" r="14.4" fill="#009af9" fill-rule="evenodd" fill-opacity="1" stroke="#000000" stroke-opacity="1" stroke-width="3.2"/>
<circle clip-path="url(#clip301)" cx="825.256" cy="695.639" r="14.4" fill="#009af9" fill-rule="evenodd" fill-opacity="1" stroke="#000000" stroke-opacity="1" stroke-width="3.2"/>
<circle clip-path="url(#clip301)" cx="846.189" cy="588.503" r="14.4" fill="#009af9" fill-rule="evenodd" fill-opacity="1" stroke="#000000" stroke-opacity="1" stroke-width="3.2"/>
<circle clip-path="url(#clip301)" cx="867.122" cy="709.001" r="14.4" fill="#009af9" fill-rule="evenodd" fill-opacity="1" stroke="#000000" stroke-opacity="1" stroke-width="3.2"/>
<circle clip-path="url(#clip301)" cx="888.056" cy="681.865" r="14.4" fill="#009af9" fill-rule="evenodd" fill-opacity="1" stroke="#000000" stroke-opacity="1" stroke-width="3.2"/>
<circle clip-path="url(#clip301)" cx="908.989" cy="708.033" r="14.4" fill="#009af9" fill-rule="evenodd" fill-opacity="1" stroke="#000000" stroke-opacity="1" stroke-width="3.2"/>
<circle clip-path="url(#clip301)" cx="929.922" cy="757.938" r="14.4" fill="#009af9" fill-rule="evenodd" fill-opacity="1" stroke="#000000" stroke-opacity="1" stroke-width="3.2"/>
<circle clip-path="url(#clip301)" cx="950.855" cy="725.29" r="14.4" fill="#009af9" fill-rule="evenodd" fill-opacity="1" stroke="#000000" stroke-opacity="1" stroke-width="3.2"/>
<circle clip-path="url(#clip301)" cx="971.789" cy="685.779" r="14.4" fill="#009af9" fill-rule="evenodd" fill-opacity="1" stroke="#000000" stroke-opacity="1" stroke-width="3.2"/>
<circle clip-path="url(#clip301)" cx="992.722" cy="853.949" r="14.4" fill="#009af9" fill-rule="evenodd" fill-opacity="1" stroke="#000000" stroke-opacity="1" stroke-width="3.2"/>
<circle clip-path="url(#clip301)" cx="1013.66" cy="724.882" r="14.4" fill="#009af9" fill-rule="evenodd" fill-opacity="1" stroke="#000000" stroke-opacity="1" stroke-width="3.2"/>
<circle clip-path="url(#clip301)" cx="1034.59" cy="848.204" r="14.4" fill="#009af9" fill-rule="evenodd" fill-opacity="1" stroke="#000000" stroke-opacity="1" stroke-width="3.2"/>
<circle clip-path="url(#clip301)" cx="1055.52" cy="638.562" r="14.4" fill="#009af9" fill-rule="evenodd" fill-opacity="1" stroke="#000000" stroke-opacity="1" stroke-width="3.2"/>
<circle clip-path="url(#clip301)" cx="1076.46" cy="747.149" r="14.4" fill="#009af9" fill-rule="evenodd" fill-opacity="1" stroke="#000000" stroke-opacity="1" stroke-width="3.2"/>
<circle clip-path="url(#clip301)" cx="1097.39" cy="996.962" r="14.4" fill="#009af9" fill-rule="evenodd" fill-opacity="1" stroke="#000000" stroke-opacity="1" stroke-width="3.2"/>
<circle clip-path="url(#clip301)" cx="1118.32" cy="775.99" r="14.4" fill="#009af9" fill-rule="evenodd" fill-opacity="1" stroke="#000000" stroke-opacity="1" stroke-width="3.2"/>
<circle clip-path="url(#clip301)" cx="1139.25" cy="848.403" r="14.4" fill="#009af9" fill-rule="evenodd" fill-opacity="1" stroke="#000000" stroke-opacity="1" stroke-width="3.2"/>
<circle clip-path="url(#clip301)" cx="1160.19" cy="797.109" r="14.4" fill="#009af9" fill-rule="evenodd" fill-opacity="1" stroke="#000000" stroke-opacity="1" stroke-width="3.2"/>
<circle clip-path="url(#clip301)" cx="1181.12" cy="877.477" r="14.4" fill="#009af9" fill-rule="evenodd" fill-opacity="1" stroke="#000000" stroke-opacity="1" stroke-width="3.2"/>
<circle clip-path="url(#clip301)" cx="1202.05" cy="852.211" r="14.4" fill="#009af9" fill-rule="evenodd" fill-opacity="1" stroke="#000000" stroke-opacity="1" stroke-width="3.2"/>
<circle clip-path="url(#clip301)" cx="1222.99" cy="946.519" r="14.4" fill="#009af9" fill-rule="evenodd" fill-opacity="1" stroke="#000000" stroke-opacity="1" stroke-width="3.2"/>
<circle clip-path="url(#clip301)" cx="1243.92" cy="965.568" r="14.4" fill="#009af9" fill-rule="evenodd" fill-opacity="1" stroke="#000000" stroke-opacity="1" stroke-width="3.2"/>
<circle clip-path="url(#clip301)" cx="1264.85" cy="905.514" r="14.4" fill="#009af9" fill-rule="evenodd" fill-opacity="1" stroke="#000000" stroke-opacity="1" stroke-width="3.2"/>
<circle clip-path="url(#clip301)" cx="1285.79" cy="1119.57" r="14.4" fill="#009af9" fill-rule="evenodd" fill-opacity="1" stroke="#000000" stroke-opacity="1" stroke-width="3.2"/>
<circle clip-path="url(#clip301)" cx="1306.72" cy="1078.94" r="14.4" fill="#009af9" fill-rule="evenodd" fill-opacity="1" stroke="#000000" stroke-opacity="1" stroke-width="3.2"/>
<circle clip-path="url(#clip301)" cx="1327.65" cy="920.314" r="14.4" fill="#009af9" fill-rule="evenodd" fill-opacity="1" stroke="#000000" stroke-opacity="1" stroke-width="3.2"/>
<circle clip-path="url(#clip301)" cx="1348.59" cy="958.171" r="14.4" fill="#009af9" fill-rule="evenodd" fill-opacity="1" stroke="#000000" stroke-opacity="1" stroke-width="3.2"/>
<circle clip-path="url(#clip301)" cx="1369.52" cy="1088.04" r="14.4" fill="#009af9" fill-rule="evenodd" fill-opacity="1" stroke="#000000" stroke-opacity="1" stroke-width="3.2"/>
<circle clip-path="url(#clip301)" cx="1390.45" cy="867.586" r="14.4" fill="#009af9" fill-rule="evenodd" fill-opacity="1" stroke="#000000" stroke-opacity="1" stroke-width="3.2"/>
<circle clip-path="url(#clip301)" cx="1411.39" cy="1101.93" r="14.4" fill="#009af9" fill-rule="evenodd" fill-opacity="1" stroke="#000000" stroke-opacity="1" stroke-width="3.2"/>
<circle clip-path="url(#clip301)" cx="1432.32" cy="1014.49" r="14.4" fill="#009af9" fill-rule="evenodd" fill-opacity="1" stroke="#000000" stroke-opacity="1" stroke-width="3.2"/>
<circle clip-path="url(#clip301)" cx="1453.25" cy="960.296" r="14.4" fill="#009af9" fill-rule="evenodd" fill-opacity="1" stroke="#000000" stroke-opacity="1" stroke-width="3.2"/>
<circle clip-path="url(#clip301)" cx="1474.19" cy="1015.99" r="14.4" fill="#009af9" fill-rule="evenodd" fill-opacity="1" stroke="#000000" stroke-opacity="1" stroke-width="3.2"/>
<circle clip-path="url(#clip301)" cx="1495.12" cy="1020.17" r="14.4" fill="#009af9" fill-rule="evenodd" fill-opacity="1" stroke="#000000" stroke-opacity="1" stroke-width="3.2"/>
<circle clip-path="url(#clip301)" cx="1516.05" cy="906.275" r="14.4" fill="#009af9" fill-rule="evenodd" fill-opacity="1" stroke="#000000" stroke-opacity="1" stroke-width="3.2"/>
<circle clip-path="url(#clip301)" cx="1536.99" cy="1099.76" r="14.4" fill="#009af9" fill-rule="evenodd" fill-opacity="1" stroke="#000000" stroke-opacity="1" stroke-width="3.2"/>
<circle clip-path="url(#clip301)" cx="1557.92" cy="1001.99" r="14.4" fill="#009af9" fill-rule="evenodd" fill-opacity="1" stroke="#000000" stroke-opacity="1" stroke-width="3.2"/>
<circle clip-path="url(#clip301)" cx="1578.85" cy="994.713" r="14.4" fill="#009af9" fill-rule="evenodd" fill-opacity="1" stroke="#000000" stroke-opacity="1" stroke-width="3.2"/>
<circle clip-path="url(#clip301)" cx="1599.79" cy="1179.71" r="14.4" fill="#009af9" fill-rule="evenodd" fill-opacity="1" stroke="#000000" stroke-opacity="1" stroke-width="3.2"/>
<circle clip-path="url(#clip301)" cx="1620.72" cy="1095.89" r="14.4" fill="#009af9" fill-rule="evenodd" fill-opacity="1" stroke="#000000" stroke-opacity="1" stroke-width="3.2"/>
<circle clip-path="url(#clip301)" cx="1641.65" cy="1025.7" r="14.4" fill="#009af9" fill-rule="evenodd" fill-opacity="1" stroke="#000000" stroke-opacity="1" stroke-width="3.2"/>
<circle clip-path="url(#clip301)" cx="1662.59" cy="1155.04" r="14.4" fill="#009af9" fill-rule="evenodd" fill-opacity="1" stroke="#000000" stroke-opacity="1" stroke-width="3.2"/>
<circle clip-path="url(#clip301)" cx="1683.52" cy="1167.19" r="14.4" fill="#009af9" fill-rule="evenodd" fill-opacity="1" stroke="#000000" stroke-opacity="1" stroke-width="3.2"/>
<circle clip-path="url(#clip301)" cx="1704.45" cy="1173.71" r="14.4" fill="#009af9" fill-rule="evenodd" fill-opacity="1" stroke="#000000" stroke-opacity="1" stroke-width="3.2"/>
<circle clip-path="url(#clip301)" cx="1725.39" cy="1174.36" r="14.4" fill="#009af9" fill-rule="evenodd" fill-opacity="1" stroke="#000000" stroke-opacity="1" stroke-width="3.2"/>
<circle clip-path="url(#clip301)" cx="1746.32" cy="1205.74" r="14.4" fill="#009af9" fill-rule="evenodd" fill-opacity="1" stroke="#000000" stroke-opacity="1" stroke-width="3.2"/>
<circle clip-path="url(#clip301)" cx="1767.25" cy="1025.76" r="14.4" fill="#009af9" fill-rule="evenodd" fill-opacity="1" stroke="#000000" stroke-opacity="1" stroke-width="3.2"/>
<circle clip-path="url(#clip301)" cx="1788.19" cy="1160.9" r="14.4" fill="#009af9" fill-rule="evenodd" fill-opacity="1" stroke="#000000" stroke-opacity="1" stroke-width="3.2"/>
<circle clip-path="url(#clip301)" cx="1809.12" cy="1158.1" r="14.4" fill="#009af9" fill-rule="evenodd" fill-opacity="1" stroke="#000000" stroke-opacity="1" stroke-width="3.2"/>
<circle clip-path="url(#clip301)" cx="1830.05" cy="1111.42" r="14.4" fill="#009af9" fill-rule="evenodd" fill-opacity="1" stroke="#000000" stroke-opacity="1" stroke-width="3.2"/>
<circle clip-path="url(#clip301)" cx="1850.99" cy="1217.03" r="14.4" fill="#009af9" fill-rule="evenodd" fill-opacity="1" stroke="#000000" stroke-opacity="1" stroke-width="3.2"/>
<circle clip-path="url(#clip301)" cx="1871.92" cy="1177" r="14.4" fill="#009af9" fill-rule="evenodd" fill-opacity="1" stroke="#000000" stroke-opacity="1" stroke-width="3.2"/>
<circle clip-path="url(#clip301)" cx="1892.85" cy="1304.42" r="14.4" fill="#009af9" fill-rule="evenodd" fill-opacity="1" stroke="#000000" stroke-opacity="1" stroke-width="3.2"/>
<circle clip-path="url(#clip301)" cx="1913.79" cy="1310.36" r="14.4" fill="#009af9" fill-rule="evenodd" fill-opacity="1" stroke="#000000" stroke-opacity="1" stroke-width="3.2"/>
<circle clip-path="url(#clip301)" cx="1934.72" cy="1232.49" r="14.4" fill="#009af9" fill-rule="evenodd" fill-opacity="1" stroke="#000000" stroke-opacity="1" stroke-width="3.2"/>
<circle clip-path="url(#clip301)" cx="1955.65" cy="1180.3" r="14.4" fill="#009af9" fill-rule="evenodd" fill-opacity="1" stroke="#000000" stroke-opacity="1" stroke-width="3.2"/>
<circle clip-path="url(#clip301)" cx="1976.59" cy="1305.1" r="14.4" fill="#009af9" fill-rule="evenodd" fill-opacity="1" stroke="#000000" stroke-opacity="1" stroke-width="3.2"/>
<circle clip-path="url(#clip301)" cx="1997.52" cy="1254.23" r="14.4" fill="#009af9" fill-rule="evenodd" fill-opacity="1" stroke="#000000" stroke-opacity="1" stroke-width="3.2"/>
<circle clip-path="url(#clip301)" cx="2018.45" cy="1355.04" r="14.4" fill="#009af9" fill-rule="evenodd" fill-opacity="1" stroke="#000000" stroke-opacity="1" stroke-width="3.2"/>
<circle clip-path="url(#clip301)" cx="2039.38" cy="1134.97" r="14.4" fill="#009af9" fill-rule="evenodd" fill-opacity="1" stroke="#000000" stroke-opacity="1" stroke-width="3.2"/>
<circle clip-path="url(#clip301)" cx="2060.32" cy="1282.07" r="14.4" fill="#009af9" fill-rule="evenodd" fill-opacity="1" stroke="#000000" stroke-opacity="1" stroke-width="3.2"/>
<circle clip-path="url(#clip301)" cx="2081.25" cy="1158" r="14.4" fill="#009af9" fill-rule="evenodd" fill-opacity="1" stroke="#000000" stroke-opacity="1" stroke-width="3.2"/>
<circle clip-path="url(#clip301)" cx="2102.18" cy="1324.08" r="14.4" fill="#009af9" fill-rule="evenodd" fill-opacity="1" stroke="#000000" stroke-opacity="1" stroke-width="3.2"/>
<circle clip-path="url(#clip301)" cx="2123.12" cy="1319.51" r="14.4" fill="#009af9" fill-rule="evenodd" fill-opacity="1" stroke="#000000" stroke-opacity="1" stroke-width="3.2"/>
<circle clip-path="url(#clip301)" cx="2144.05" cy="1412.68" r="14.4" fill="#009af9" fill-rule="evenodd" fill-opacity="1" stroke="#000000" stroke-opacity="1" stroke-width="3.2"/>
<circle clip-path="url(#clip301)" cx="2164.98" cy="1412.2" r="14.4" fill="#009af9" fill-rule="evenodd" fill-opacity="1" stroke="#000000" stroke-opacity="1" stroke-width="3.2"/>
<circle clip-path="url(#clip301)" cx="2185.92" cy="1322.51" r="14.4" fill="#009af9" fill-rule="evenodd" fill-opacity="1" stroke="#000000" stroke-opacity="1" stroke-width="3.2"/>
<circle clip-path="url(#clip301)" cx="2206.85" cy="1436.33" r="14.4" fill="#009af9" fill-rule="evenodd" fill-opacity="1" stroke="#000000" stroke-opacity="1" stroke-width="3.2"/>
<circle clip-path="url(#clip301)" cx="2227.78" cy="1274.8" r="14.4" fill="#009af9" fill-rule="evenodd" fill-opacity="1" stroke="#000000" stroke-opacity="1" stroke-width="3.2"/>
<circle clip-path="url(#clip301)" cx="2248.72" cy="1370.09" r="14.4" fill="#009af9" fill-rule="evenodd" fill-opacity="1" stroke="#000000" stroke-opacity="1" stroke-width="3.2"/>
<circle clip-path="url(#clip301)" cx="2269.65" cy="1256.58" r="14.4" fill="#009af9" fill-rule="evenodd" fill-opacity="1" stroke="#000000" stroke-opacity="1" stroke-width="3.2"/>
<circle clip-path="url(#clip301)" cx="2290.58" cy="1445.72" r="14.4" fill="#009af9" fill-rule="evenodd" fill-opacity="1" stroke="#000000" stroke-opacity="1" stroke-width="3.2"/>
<polyline clip-path="url(#clip301)" style="stroke:#e26f46; stroke-linecap:round; stroke-linejoin:round; stroke-width:8; stroke-opacity:1; fill:none" points="218.191,192.193 239.125,210.812 260.058,229.244 280.991,247.491 301.924,265.554 322.858,283.436 343.791,301.138 364.724,318.662 385.657,336.01 406.591,353.184 427.524,370.185 448.457,387.015 469.39,403.676 490.324,420.17 511.257,436.497 532.19,452.661 553.123,468.662 574.057,484.503 594.99,500.184 615.923,515.708 636.857,531.075 657.79,546.289 678.723,561.349 699.656,576.258 720.59,591.017 741.523,605.628 762.456,620.092 783.389,634.41 804.323,648.585 825.256,662.617 846.189,676.508 867.122,690.26 888.056,703.873 908.989,717.35 929.922,730.691 950.855,743.898 971.789,756.972 992.722,769.915 1013.66,782.728 1034.59,795.412 1055.52,807.969 1076.46,820.399 1097.39,832.705 1118.32,844.886 1139.25,856.946 1160.19,868.884 1181.12,880.702 1202.05,892.402 1222.99,903.983 1243.92,915.449 1264.85,926.799 1285.79,938.035 1306.72,949.158 1327.65,960.17 1348.59,971.071 1369.52,981.862 1390.45,992.544 1411.39,1003.12 1432.32,1013.59 1453.25,1023.95 1474.19,1034.21 1495.12,1044.37 1516.05,1054.42 1536.99,1064.38 1557.92,1074.23 1578.85,1083.98 1599.79,1093.64 1620.72,1103.2 1641.65,1112.66 1662.59,1122.03 1683.52,1131.31 1704.45,1140.49 1725.39,1149.58 1746.32,1158.57 1767.25,1167.48 1788.19,1176.3 1809.12,1185.03 1830.05,1193.67 1850.99,1202.22 1871.92,1210.69 1892.85,1219.07 1913.79,1227.37 1934.72,1235.59 1955.65,1243.72 1976.59,1251.77 1997.52,1259.74 2018.45,1267.63 2039.38,1275.44 2060.32,1283.17 2081.25,1290.83 2102.18,1298.4 2123.12,1305.91 2144.05,1313.33 2164.98,1320.68 2185.92,1327.96 2206.85,1335.17 2227.78,1342.3 2248.72,1349.36 2269.65,1356.35 2290.58,1363.27 "/>
<polyline clip-path="url(#clip301)" style="stroke:#3da44d; stroke-linecap:round; stroke-linejoin:round; stroke-width:8; stroke-opacity:1; fill:none" stroke-dasharray="32, 20" points="218.191,205.114 239.125,223.435 260.058,241.574 280.991,259.532 301.924,277.312 322.858,294.914 343.791,312.341 364.724,329.594 385.657,346.676 406.591,363.587 427.524,380.33 448.457,396.907 469.39,413.318 490.324,429.566 511.257,445.652 532.19,461.577 553.123,477.345 574.057,492.955 594.99,508.41 615.923,523.71 636.857,538.859 657.79,553.856 678.723,568.704 699.656,583.405 720.59,597.959 741.523,612.368 762.456,626.633 783.389,640.757 804.323,654.739 825.256,668.583 846.189,682.288 867.122,695.858 888.056,709.292 908.989,722.592 929.922,735.76 950.855,748.796 971.789,761.703 992.722,774.481 1013.66,787.132 1034.59,799.657 1055.52,812.058 1076.46,824.334 1097.39,836.489 1118.32,848.522 1139.25,860.436 1160.19,872.231 1181.12,883.908 1202.05,895.47 1222.99,906.916 1243.92,918.248 1264.85,929.467 1285.79,940.575 1306.72,951.572 1327.65,962.459 1348.59,973.238 1369.52,983.909 1390.45,994.475 1411.39,1004.93 1432.32,1015.29 1453.25,1025.54 1474.19,1035.69 1495.12,1045.74 1516.05,1055.69 1536.99,1065.54 1557.92,1075.3 1578.85,1084.95 1599.79,1094.51 1620.72,1103.97 1641.65,1113.34 1662.59,1122.62 1683.52,1131.8 1704.45,1140.9 1725.39,1149.9 1746.32,1158.81 1767.25,1167.63 1788.19,1176.37 1809.12,1185.02 1830.05,1193.58 1850.99,1202.06 1871.92,1210.45 1892.85,1218.76 1913.79,1226.99 1934.72,1235.13 1955.65,1243.19 1976.59,1251.18 1997.52,1259.08 2018.45,1266.91 2039.38,1274.65 2060.32,1282.32 2081.25,1289.92 2102.18,1297.43 2123.12,1304.88 2144.05,1312.25 2164.98,1319.54 2185.92,1326.76 2206.85,1333.92 2227.78,1341 2248.72,1348 2269.65,1354.94 2290.58,1361.81 "/>
<path clip-path="url(#clip300)" d="M229.244 1438.47 L735.93 1438.47 L735.93 1231.11 L229.244 1231.11  Z" fill="#ffffff" fill-rule="evenodd" fill-opacity="1"/>
<polyline clip-path="url(#clip300)" style="stroke:#000000; stroke-linecap:round; stroke-linejoin:round; stroke-width:4; stroke-opacity:1; fill:none" points="229.244,1438.47 735.93,1438.47 735.93,1231.11 229.244,1231.11 229.244,1438.47 "/>
<circle clip-path="url(#clip300)" cx="326.877" cy="1282.95" r="20.48" fill="#009af9" fill-rule="evenodd" fill-opacity="1" stroke="#000000" stroke-opacity="1" stroke-width="4.55111"/>
<path clip-path="url(#clip300)" d="M424.51 1265.67 L430.806 1265.67 L446.13 1294.59 L446.13 1265.67 L450.667 1265.67 L450.667 1300.23 L444.371 1300.23 L429.047 1271.32 L429.047 1300.23 L424.51 1300.23 L424.51 1265.67 Z" fill="#000000" fill-rule="nonzero" fill-opacity="1" /><path clip-path="url(#clip300)" d="M469.833 1277.29 Q466.407 1277.29 464.417 1279.98 Q462.426 1282.64 462.426 1287.29 Q462.426 1291.95 464.394 1294.63 Q466.384 1297.29 469.833 1297.29 Q473.236 1297.29 475.227 1294.61 Q477.218 1291.92 477.218 1287.29 Q477.218 1282.69 475.227 1280 Q473.236 1277.29 469.833 1277.29 M469.833 1273.68 Q475.389 1273.68 478.56 1277.29 Q481.731 1280.91 481.731 1287.29 Q481.731 1293.66 478.56 1297.29 Q475.389 1300.91 469.833 1300.91 Q464.255 1300.91 461.083 1297.29 Q457.935 1293.66 457.935 1287.29 Q457.935 1280.91 461.083 1277.29 Q464.255 1273.68 469.833 1273.68 Z" fill="#000000" fill-rule="nonzero" fill-opacity="1" /><path clip-path="url(#clip300)" d="M488.792 1274.31 L493.051 1274.31 L493.051 1300.23 L488.792 1300.23 L488.792 1274.31 M488.792 1264.22 L493.051 1264.22 L493.051 1269.61 L488.792 1269.61 L488.792 1264.22 Z" fill="#000000" fill-rule="nonzero" fill-opacity="1" /><path clip-path="url(#clip300)" d="M518.491 1275.07 L518.491 1279.1 Q516.685 1278.17 514.741 1277.71 Q512.796 1277.25 510.713 1277.25 Q507.541 1277.25 505.944 1278.22 Q504.37 1279.19 504.37 1281.14 Q504.37 1282.62 505.504 1283.48 Q506.639 1284.31 510.065 1285.07 L511.523 1285.4 Q516.06 1286.37 517.958 1288.15 Q519.879 1289.91 519.879 1293.08 Q519.879 1296.69 517.009 1298.8 Q514.162 1300.91 509.162 1300.91 Q507.079 1300.91 504.81 1300.49 Q502.565 1300.1 500.065 1299.29 L500.065 1294.89 Q502.426 1296.11 504.717 1296.74 Q507.009 1297.34 509.254 1297.34 Q512.264 1297.34 513.884 1296.32 Q515.504 1295.28 515.504 1293.41 Q515.504 1291.67 514.324 1290.74 Q513.166 1289.82 509.208 1288.96 L507.727 1288.61 Q503.768 1287.78 502.009 1286.07 Q500.25 1284.33 500.25 1281.32 Q500.25 1277.67 502.842 1275.67 Q505.435 1273.68 510.204 1273.68 Q512.565 1273.68 514.648 1274.03 Q516.731 1274.38 518.491 1275.07 Z" fill="#000000" fill-rule="nonzero" fill-opacity="1" /><path clip-path="url(#clip300)" d="M537.449 1302.64 Q535.643 1307.27 533.93 1308.68 Q532.217 1310.1 529.347 1310.1 L525.944 1310.1 L525.944 1306.53 L528.444 1306.53 Q530.203 1306.53 531.176 1305.7 Q532.148 1304.86 533.328 1301.76 L534.092 1299.82 L523.606 1274.31 L528.12 1274.31 L536.222 1294.59 L544.324 1274.31 L548.838 1274.31 L537.449 1302.64 Z" fill="#000000" fill-rule="nonzero" fill-opacity="1" /><path clip-path="url(#clip300)" d="M586.847 1278.24 L586.847 1264.22 L591.106 1264.22 L591.106 1300.23 L586.847 1300.23 L586.847 1296.35 Q585.504 1298.66 583.444 1299.79 Q581.407 1300.91 578.536 1300.91 Q573.837 1300.91 570.874 1297.16 Q567.935 1293.41 567.935 1287.29 Q567.935 1281.18 570.874 1277.43 Q573.837 1273.68 578.536 1273.68 Q581.407 1273.68 583.444 1274.82 Q585.504 1275.93 586.847 1278.24 M572.333 1287.29 Q572.333 1291.99 574.254 1294.68 Q576.199 1297.34 579.578 1297.34 Q582.958 1297.34 584.902 1294.68 Q586.847 1291.99 586.847 1287.29 Q586.847 1282.6 584.902 1279.93 Q582.958 1277.25 579.578 1277.25 Q576.199 1277.25 574.254 1279.93 Q572.333 1282.6 572.333 1287.29 Z" fill="#000000" fill-rule="nonzero" fill-opacity="1" /><path clip-path="url(#clip300)" d="M611.661 1287.2 Q606.499 1287.2 604.509 1288.38 Q602.518 1289.56 602.518 1292.41 Q602.518 1294.68 603.999 1296.02 Q605.504 1297.34 608.073 1297.34 Q611.615 1297.34 613.745 1294.84 Q615.897 1292.32 615.897 1288.15 L615.897 1287.2 L611.661 1287.2 M620.157 1285.44 L620.157 1300.23 L615.897 1300.23 L615.897 1296.3 Q614.439 1298.66 612.263 1299.79 Q610.087 1300.91 606.939 1300.91 Q602.958 1300.91 600.597 1298.68 Q598.259 1296.44 598.259 1292.69 Q598.259 1288.31 601.175 1286.09 Q604.115 1283.87 609.925 1283.87 L615.897 1283.87 L615.897 1283.45 Q615.897 1280.51 613.953 1278.92 Q612.032 1277.29 608.536 1277.29 Q606.314 1277.29 604.208 1277.83 Q602.101 1278.36 600.157 1279.42 L600.157 1275.49 Q602.495 1274.59 604.694 1274.15 Q606.893 1273.68 608.976 1273.68 Q614.601 1273.68 617.379 1276.6 Q620.157 1279.52 620.157 1285.44 Z" fill="#000000" fill-rule="nonzero" fill-opacity="1" /><path clip-path="url(#clip300)" d="M633.143 1266.95 L633.143 1274.31 L641.916 1274.31 L641.916 1277.62 L633.143 1277.62 L633.143 1291.69 Q633.143 1294.86 633.999 1295.77 Q634.879 1296.67 637.541 1296.67 L641.916 1296.67 L641.916 1300.23 L637.541 1300.23 Q632.61 1300.23 630.735 1298.41 Q628.86 1296.55 628.86 1291.69 L628.86 1277.62 L625.735 1277.62 L625.735 1274.31 L628.86 1274.31 L628.86 1266.95 L633.143 1266.95 Z" fill="#000000" fill-rule="nonzero" fill-opacity="1" /><path clip-path="url(#clip300)" d="M659.3 1287.2 Q654.138 1287.2 652.147 1288.38 Q650.156 1289.56 650.156 1292.41 Q650.156 1294.68 651.638 1296.02 Q653.143 1297.34 655.712 1297.34 Q659.254 1297.34 661.383 1294.84 Q663.536 1292.32 663.536 1288.15 L663.536 1287.2 L659.3 1287.2 M667.795 1285.44 L667.795 1300.23 L663.536 1300.23 L663.536 1296.3 Q662.078 1298.66 659.902 1299.79 Q657.726 1300.91 654.578 1300.91 Q650.596 1300.91 648.235 1298.68 Q645.897 1296.44 645.897 1292.69 Q645.897 1288.31 648.814 1286.09 Q651.754 1283.87 657.564 1283.87 L663.536 1283.87 L663.536 1283.45 Q663.536 1280.51 661.592 1278.92 Q659.67 1277.29 656.175 1277.29 Q653.953 1277.29 651.846 1277.83 Q649.74 1278.36 647.795 1279.42 L647.795 1275.49 Q650.133 1274.59 652.332 1274.15 Q654.531 1273.68 656.615 1273.68 Q662.24 1273.68 665.018 1276.6 Q667.795 1279.52 667.795 1285.44 Z" fill="#000000" fill-rule="nonzero" fill-opacity="1" /><polyline clip-path="url(#clip300)" style="stroke:#e26f46; stroke-linecap:round; stroke-linejoin:round; stroke-width:8; stroke-opacity:1; fill:none" points="253.652,1334.79 400.101,1334.79 "/>
<path clip-path="url(#clip300)" d="M424.51 1317.51 L453.745 1317.51 L453.745 1321.45 L441.477 1321.45 L441.477 1352.07 L436.778 1352.07 L436.778 1321.45 L424.51 1321.45 L424.51 1317.51 Z" fill="#000000" fill-rule="nonzero" fill-opacity="1" /><path clip-path="url(#clip300)" d="M466.13 1330.13 Q465.412 1329.71 464.556 1329.53 Q463.722 1329.32 462.704 1329.32 Q459.093 1329.32 457.148 1331.68 Q455.227 1334.02 455.227 1338.42 L455.227 1352.07 L450.945 1352.07 L450.945 1326.15 L455.227 1326.15 L455.227 1330.18 Q456.57 1327.82 458.722 1326.68 Q460.875 1325.52 463.954 1325.52 Q464.394 1325.52 464.926 1325.59 Q465.458 1325.64 466.107 1325.76 L466.13 1330.13 Z" fill="#000000" fill-rule="nonzero" fill-opacity="1" /><path clip-path="url(#clip300)" d="M470.157 1341.84 L470.157 1326.15 L474.417 1326.15 L474.417 1341.68 Q474.417 1345.36 475.852 1347.21 Q477.287 1349.04 480.157 1349.04 Q483.606 1349.04 485.597 1346.84 Q487.611 1344.64 487.611 1340.85 L487.611 1326.15 L491.87 1326.15 L491.87 1352.07 L487.611 1352.07 L487.611 1348.09 Q486.06 1350.45 484 1351.61 Q481.963 1352.75 479.255 1352.75 Q474.787 1352.75 472.472 1349.97 Q470.157 1347.19 470.157 1341.84 M480.875 1325.52 L480.875 1325.52 Z" fill="#000000" fill-rule="nonzero" fill-opacity="1" /><path clip-path="url(#clip300)" d="M522.819 1338.05 L522.819 1340.13 L503.236 1340.13 Q503.514 1344.53 505.875 1346.84 Q508.259 1349.13 512.495 1349.13 Q514.949 1349.13 517.241 1348.53 Q519.555 1347.93 521.824 1346.73 L521.824 1350.75 Q519.532 1351.73 517.125 1352.24 Q514.717 1352.75 512.241 1352.75 Q506.037 1352.75 502.403 1349.13 Q498.792 1345.52 498.792 1339.37 Q498.792 1333 502.217 1329.27 Q505.667 1325.52 511.5 1325.52 Q516.731 1325.52 519.764 1328.9 Q522.819 1332.26 522.819 1338.05 M518.56 1336.8 Q518.514 1333.3 516.592 1331.22 Q514.694 1329.13 511.546 1329.13 Q507.981 1329.13 505.829 1331.15 Q503.699 1333.16 503.375 1336.82 L518.56 1336.8 Z" fill="#000000" fill-rule="nonzero" fill-opacity="1" /><path clip-path="url(#clip300)" d="M565.064 1331.13 Q566.662 1328.26 568.884 1326.89 Q571.106 1325.52 574.115 1325.52 Q578.166 1325.52 580.365 1328.37 Q582.564 1331.19 582.564 1336.43 L582.564 1352.07 L578.282 1352.07 L578.282 1336.57 Q578.282 1332.84 576.962 1331.03 Q575.643 1329.23 572.935 1329.23 Q569.624 1329.23 567.703 1331.43 Q565.782 1333.63 565.782 1337.42 L565.782 1352.07 L561.5 1352.07 L561.5 1336.57 Q561.5 1332.82 560.18 1331.03 Q558.861 1329.23 556.106 1329.23 Q552.842 1329.23 550.921 1331.45 Q549 1333.65 549 1337.42 L549 1352.07 L544.717 1352.07 L544.717 1326.15 L549 1326.15 L549 1330.18 Q550.458 1327.79 552.495 1326.66 Q554.532 1325.52 557.333 1325.52 Q560.157 1325.52 562.125 1326.96 Q564.115 1328.39 565.064 1331.13 Z" fill="#000000" fill-rule="nonzero" fill-opacity="1" /><path clip-path="url(#clip300)" d="M601.106 1329.13 Q597.68 1329.13 595.689 1331.82 Q593.698 1334.48 593.698 1339.13 Q593.698 1343.79 595.666 1346.47 Q597.657 1349.13 601.106 1349.13 Q604.509 1349.13 606.499 1346.45 Q608.49 1343.76 608.49 1339.13 Q608.49 1334.53 606.499 1331.84 Q604.509 1329.13 601.106 1329.13 M601.106 1325.52 Q606.661 1325.52 609.833 1329.13 Q613.004 1332.75 613.004 1339.13 Q613.004 1345.5 609.833 1349.13 Q606.661 1352.75 601.106 1352.75 Q595.527 1352.75 592.356 1349.13 Q589.208 1345.5 589.208 1339.13 Q589.208 1332.75 592.356 1329.13 Q595.527 1325.52 601.106 1325.52 Z" fill="#000000" fill-rule="nonzero" fill-opacity="1" /><path clip-path="url(#clip300)" d="M637.124 1330.08 L637.124 1316.06 L641.383 1316.06 L641.383 1352.07 L637.124 1352.07 L637.124 1348.19 Q635.782 1350.5 633.721 1351.63 Q631.684 1352.75 628.814 1352.75 Q624.115 1352.75 621.152 1349 Q618.212 1345.25 618.212 1339.13 Q618.212 1333.02 621.152 1329.27 Q624.115 1325.52 628.814 1325.52 Q631.684 1325.52 633.721 1326.66 Q635.782 1327.77 637.124 1330.08 M622.61 1339.13 Q622.61 1343.83 624.532 1346.52 Q626.476 1349.18 629.856 1349.18 Q633.235 1349.18 635.18 1346.52 Q637.124 1343.83 637.124 1339.13 Q637.124 1334.44 635.18 1331.77 Q633.235 1329.09 629.856 1329.09 Q626.476 1329.09 624.532 1331.77 Q622.61 1334.44 622.61 1339.13 Z" fill="#000000" fill-rule="nonzero" fill-opacity="1" /><path clip-path="url(#clip300)" d="M672.332 1338.05 L672.332 1340.13 L652.749 1340.13 Q653.027 1344.53 655.388 1346.84 Q657.772 1349.13 662.008 1349.13 Q664.462 1349.13 666.754 1348.53 Q669.068 1347.93 671.337 1346.73 L671.337 1350.75 Q669.045 1351.73 666.638 1352.24 Q664.23 1352.75 661.754 1352.75 Q655.55 1352.75 651.916 1349.13 Q648.305 1345.52 648.305 1339.37 Q648.305 1333 651.731 1329.27 Q655.18 1325.52 661.013 1325.52 Q666.244 1325.52 669.277 1328.9 Q672.332 1332.26 672.332 1338.05 M668.073 1336.8 Q668.027 1333.3 666.105 1331.22 Q664.207 1329.13 661.059 1329.13 Q657.494 1329.13 655.342 1331.15 Q653.212 1333.16 652.888 1336.82 L668.073 1336.8 Z" fill="#000000" fill-rule="nonzero" fill-opacity="1" /><path clip-path="url(#clip300)" d="M679.323 1316.06 L683.582 1316.06 L683.582 1352.07 L679.323 1352.07 L679.323 1316.06 Z" fill="#000000" fill-rule="nonzero" fill-opacity="1" /><polyline clip-path="url(#clip300)" style="stroke:#3da44d; stroke-linecap:round; stroke-linejoin:round; stroke-width:8; stroke-opacity:1; fill:none" stroke-dasharray="32, 20" points="253.652,1386.63 400.101,1386.63 "/>
<path clip-path="url(#clip300)" d="M424.51 1369.35 L444.371 1369.35 L444.371 1373.29 L429.185 1373.29 L429.185 1383.47 L442.889 1383.47 L442.889 1387.41 L429.185 1387.41 L429.185 1403.91 L424.51 1403.91 L424.51 1369.35 Z" fill="#000000" fill-rule="nonzero" fill-opacity="1" /><path clip-path="url(#clip300)" d="M448.144 1377.99 L452.403 1377.99 L452.403 1403.91 L448.144 1403.91 L448.144 1377.99 M448.144 1367.9 L452.403 1367.9 L452.403 1373.29 L448.144 1373.29 L448.144 1367.9 Z" fill="#000000" fill-rule="nonzero" fill-opacity="1" /><path clip-path="url(#clip300)" d="M465.528 1370.63 L465.528 1377.99 L474.301 1377.99 L474.301 1381.3 L465.528 1381.3 L465.528 1395.37 Q465.528 1398.54 466.384 1399.45 Q467.264 1400.35 469.926 1400.35 L474.301 1400.35 L474.301 1403.91 L469.926 1403.91 Q464.995 1403.91 463.12 1402.09 Q461.245 1400.23 461.245 1395.37 L461.245 1381.3 L458.12 1381.3 L458.12 1377.99 L461.245 1377.99 L461.245 1370.63 L465.528 1370.63 Z" fill="#000000" fill-rule="nonzero" fill-opacity="1" /><path clip-path="url(#clip300)" d="M484.116 1370.63 L484.116 1377.99 L492.889 1377.99 L492.889 1381.3 L484.116 1381.3 L484.116 1395.37 Q484.116 1398.54 484.972 1399.45 Q485.852 1400.35 488.514 1400.35 L492.889 1400.35 L492.889 1403.91 L488.514 1403.91 Q483.583 1403.91 481.708 1402.09 Q479.833 1400.23 479.833 1395.37 L479.833 1381.3 L476.708 1381.3 L476.708 1377.99 L479.833 1377.99 L479.833 1370.63 L484.116 1370.63 Z" fill="#000000" fill-rule="nonzero" fill-opacity="1" /><path clip-path="url(#clip300)" d="M520.666 1389.89 L520.666 1391.97 L501.083 1391.97 Q501.361 1396.37 503.722 1398.68 Q506.106 1400.97 510.342 1400.97 Q512.796 1400.97 515.088 1400.37 Q517.403 1399.77 519.671 1398.57 L519.671 1402.59 Q517.379 1403.57 514.972 1404.08 Q512.565 1404.59 510.088 1404.59 Q503.884 1404.59 500.25 1400.97 Q496.639 1397.36 496.639 1391.21 Q496.639 1384.84 500.065 1381.11 Q503.514 1377.36 509.347 1377.36 Q514.578 1377.36 517.611 1380.74 Q520.666 1384.1 520.666 1389.89 M516.407 1388.64 Q516.361 1385.14 514.44 1383.06 Q512.541 1380.97 509.393 1380.97 Q505.829 1380.97 503.676 1382.99 Q501.546 1385 501.222 1388.66 L516.407 1388.64 Z" fill="#000000" fill-rule="nonzero" fill-opacity="1" /><path clip-path="url(#clip300)" d="M544.717 1381.92 L544.717 1367.9 L548.976 1367.9 L548.976 1403.91 L544.717 1403.91 L544.717 1400.03 Q543.375 1402.34 541.314 1403.47 Q539.277 1404.59 536.407 1404.59 Q531.708 1404.59 528.745 1400.84 Q525.805 1397.09 525.805 1390.97 Q525.805 1384.86 528.745 1381.11 Q531.708 1377.36 536.407 1377.36 Q539.277 1377.36 541.314 1378.5 Q543.375 1379.61 544.717 1381.92 M530.203 1390.97 Q530.203 1395.67 532.125 1398.36 Q534.069 1401.02 537.449 1401.02 Q540.828 1401.02 542.773 1398.36 Q544.717 1395.67 544.717 1390.97 Q544.717 1386.28 542.773 1383.61 Q540.828 1380.93 537.449 1380.93 Q534.069 1380.93 532.125 1383.61 Q530.203 1386.28 530.203 1390.97 Z" fill="#000000" fill-rule="nonzero" fill-opacity="1" /><path clip-path="url(#clip300)" d="M593.004 1382.97 Q594.601 1380.1 596.823 1378.73 Q599.046 1377.36 602.055 1377.36 Q606.106 1377.36 608.305 1380.21 Q610.504 1383.03 610.504 1388.27 L610.504 1403.91 L606.222 1403.91 L606.222 1388.41 Q606.222 1384.68 604.902 1382.87 Q603.583 1381.07 600.874 1381.07 Q597.564 1381.07 595.643 1383.27 Q593.722 1385.47 593.722 1389.26 L593.722 1403.91 L589.439 1403.91 L589.439 1388.41 Q589.439 1384.66 588.12 1382.87 Q586.8 1381.07 584.046 1381.07 Q580.782 1381.07 578.861 1383.29 Q576.939 1385.49 576.939 1389.26 L576.939 1403.91 L572.657 1403.91 L572.657 1377.99 L576.939 1377.99 L576.939 1382.02 Q578.398 1379.63 580.435 1378.5 Q582.472 1377.36 585.273 1377.36 Q588.097 1377.36 590.064 1378.8 Q592.055 1380.23 593.004 1382.97 Z" fill="#000000" fill-rule="nonzero" fill-opacity="1" /><path clip-path="url(#clip300)" d="M629.045 1380.97 Q625.62 1380.97 623.629 1383.66 Q621.638 1386.32 621.638 1390.97 Q621.638 1395.63 623.606 1398.31 Q625.596 1400.97 629.045 1400.97 Q632.448 1400.97 634.439 1398.29 Q636.43 1395.6 636.43 1390.97 Q636.43 1386.37 634.439 1383.68 Q632.448 1380.97 629.045 1380.97 M629.045 1377.36 Q634.601 1377.36 637.772 1380.97 Q640.944 1384.59 640.944 1390.97 Q640.944 1397.34 637.772 1400.97 Q634.601 1404.59 629.045 1404.59 Q623.467 1404.59 620.296 1400.97 Q617.147 1397.34 617.147 1390.97 Q617.147 1384.59 620.296 1380.97 Q623.467 1377.36 629.045 1377.36 Z" fill="#000000" fill-rule="nonzero" fill-opacity="1" /><path clip-path="url(#clip300)" d="M665.064 1381.92 L665.064 1367.9 L669.323 1367.9 L669.323 1403.91 L665.064 1403.91 L665.064 1400.03 Q663.721 1402.34 661.661 1403.47 Q659.624 1404.59 656.754 1404.59 Q652.055 1404.59 649.092 1400.84 Q646.152 1397.09 646.152 1390.97 Q646.152 1384.86 649.092 1381.11 Q652.055 1377.36 656.754 1377.36 Q659.624 1377.36 661.661 1378.5 Q663.721 1379.61 665.064 1381.92 M650.55 1390.97 Q650.55 1395.67 652.471 1398.36 Q654.416 1401.02 657.795 1401.02 Q661.175 1401.02 663.119 1398.36 Q665.064 1395.67 665.064 1390.97 Q665.064 1386.28 663.119 1383.61 Q661.175 1380.93 657.795 1380.93 Q654.416 1380.93 652.471 1383.61 Q650.55 1386.28 650.55 1390.97 Z" fill="#000000" fill-rule="nonzero" fill-opacity="1" /><path clip-path="url(#clip300)" d="M700.272 1389.89 L700.272 1391.97 L680.689 1391.97 Q680.966 1396.37 683.328 1398.68 Q685.712 1400.97 689.948 1400.97 Q692.402 1400.97 694.693 1400.37 Q697.008 1399.77 699.277 1398.57 L699.277 1402.59 Q696.985 1403.57 694.578 1404.08 Q692.17 1404.59 689.693 1404.59 Q683.49 1404.59 679.855 1400.97 Q676.244 1397.36 676.244 1391.21 Q676.244 1384.84 679.67 1381.11 Q683.119 1377.36 688.953 1377.36 Q694.184 1377.36 697.216 1380.74 Q700.272 1384.1 700.272 1389.89 M696.013 1388.64 Q695.966 1385.14 694.045 1383.06 Q692.147 1380.97 688.999 1380.97 Q685.434 1380.97 683.281 1382.99 Q681.152 1385 680.828 1388.66 L696.013 1388.64 Z" fill="#000000" fill-rule="nonzero" fill-opacity="1" /><path clip-path="url(#clip300)" d="M707.263 1367.9 L711.522 1367.9 L711.522 1403.91 L707.263 1403.91 L707.263 1367.9 Z" fill="#000000" fill-rule="nonzero" fill-opacity="1" /></svg>
